<svg id="Layer_1" data-name="Layer 1" xmlns="http://www.w3.org/2000/svg" viewBox="0 0 2500 2500"><defs><style>.cls-1{fill:#fff;}.cls-2,.cls-3,.cls-4{fill:none;}.cls-2,.cls-3,.cls-4,.cls-5{stroke:#05979b;}.cls-2{stroke-width:59px;}.cls-3{stroke-width:25px;}.cls-4{stroke-width:32px;}.cls-5{fill:#05979b;}</style></defs><circle class="cls-1" cx="1250" cy="1250" r="1250"/><path class="cls-2" d="M718.94,629.51c-268.77-21.4-494.58,296.75-384.36,542.63,107.4,266.79,511.54,339.14,703.72,125.48,186.25-182.57,258-463.49,486.11-607.63,231.75-158.27,604.81-8.82,650,272.44,44.09,269.34-246.16,531.33-508.71,452.2-194.16-43.81-333.49-209.71-412.62-384.37-97.51-166.74-225-344.79-423.93-390-35.33-8-71.79-11.19-108-11.14Z"/><path class="cls-3" d="M560.68,1011H899.82"/><path class="cls-4" d="M1600.72,1011h282.62M1739.2,869.74v282.61"/><path class="cls-5" d="M464.59,1915.43l-18.09-65H331.76l-18.66,65H251.77L349,1587.59h86.48l97.22,327.84ZM390,1646.94l-43.25,152.9h85.92ZM735.9,1915.43s-33.06-78-51.72-115.88c-10.82-16.28-32.22-22.66-50.87-20.06-1.69,44.37-1.36,135.94-1.36,135.94H570.06V1587.59s93.27-2.74,139.61,3.39c98.07,11.08,104.57,153.74,6,168.72,18.49,7.35,29.68,24.45,37.59,41.83l49.46,102.31c3.48,7,3.39,12.43-6.61,12.38Zm-15.32-232c-.28-50.59-50.87-44.94-88.46-45.22v92.7C676.5,1732.37,719.74,1727.85,720.58,1683.4Zm360.12,147.24c-30,69.24-95.53,85.35-157.7,84.22H847V1587l115.59.57c143,4.66,148.1,158.83,117.85,244.18Zm-79.14-173.24c-28.82-24.76-60.48-19.7-92.7-19.7v225.24c28.27,0,59.07,2.27,83.1-15.26,51.15-32.22,44.65-154.31,9.46-190.2Zm375.89,136.5c6.13,165.62-230.34,165-237.4,35.89-4.33-39.56-.77-79.13-1.92-118.7V1586.18H1200l1.13,234.57c7.26,64.72,93.26,59.07,106.26,23.17,13.17-28.54,7.07-60.76,8.43-91.28V1586.18h61.89V1793.9Zm59.35-158.27V1585h207.72v50.59h-72.35v227.23h72.35V1914H1436.8v-51.15h72.35V1635.63Zm438.06,279.8L1768.59,1676.9v238.53h-56.24V1587.59h76l105.7,236.27c.28-17,.11-236.27.11-236.27h56.24v327.84Zm330.66-28.27c-68.67,59.07-188.5,46.07-212.24-70.37-32.51-176.92,63.3-278.66,196.7-219.31,82,46.07,77.44,235.7,15.54,291.1Zm-82.8-250.68c-58.51-1.55-67,58.22-69.25,87-.48,54.54-5.31,145.26,70.38,141.31,23.45,0,43.8-17,51.43-38.72,15.41-34.2,27-192.46-52.56-189.64Zm15-1053.89v6.62h14.56v38.43h7.52V589.21h14.69v-6.62Zm41.83,0v44.94h6.87V589.09l12.15,38.44h6.78l11.59-37.59v37.59h6.78V582.59H2213l-11,35.9-11.3-35.9Z"/></svg>