<svg id="Layer_1" data-name="Layer 1" xmlns="http://www.w3.org/2000/svg" viewBox="0 0 2500 2500"><defs><style>.cls-1{fill:#fff;}.cls-2{fill:#264de4;}.cls-3{fill:#2965f1;}.cls-4{fill:#ebebeb;}</style></defs><circle class="cls-1" cx="1250" cy="1250" r="1250"/><g id="layer1"><g id="g3013"><polygon id="polygon2989" class="cls-2" points="1958.65 643.23 1829.57 2089.32 1249.32 2250.19 670.67 2089.55 541.72 643.23 1958.65 643.23"/><polygon id="polygon2991" class="cls-3" points="1719.06 1997.24 1829.37 761.49 1250.19 761.49 1250.19 2127.23 1719.06 1997.24"/><polygon id="polygon2993" class="cls-4" points="837.34 1297.91 853.23 1475.29 1250.19 1475.29 1250.19 1297.91 837.34 1297.91"/><polygon id="polygon2995" class="cls-4" points="1250.19 938.88 1249.57 938.88 805.39 938.88 821.52 1116.27 1250.19 1116.27 1250.19 938.88"/><polygon id="polygon2997" class="cls-4" points="1250.19 1943.15 1250.19 1758.6 1249.41 1758.81 1051.86 1705.46 1039.23 1563.99 943.23 1563.99 861.16 1563.99 886.01 1842.51 1249.37 1943.38 1250.19 1943.15"/><path id="path2999" d="M875.19,250.19H1090V340H965v89.85h125v89.84H875.19Z"/><path id="path3001" d="M1133,250.19h214.84v78.12h-125v15.63h125V523.62H1133v-82h125V426H1133Z"/><path id="path3003" d="M1390.81,250.19h214.85v78.12h-125v15.63h125V523.62H1390.81v-82h125V426h-125Z"/><polygon id="polygon3005" class="cls-1" points="1468 1475.29 1447.41 1705.35 1249.57 1758.75 1249.57 1943.29 1613.22 1842.51 1615.89 1812.54 1657.57 1345.54 1661.9 1297.91 1693.93 938.88 1249.57 938.88 1249.57 1116.27 1499.53 1116.27 1483.39 1297.91 1249.57 1297.91 1249.57 1475.29 1468 1475.29"/></g></g></svg>