<svg id="Layer_1" data-name="Layer 1" xmlns="http://www.w3.org/2000/svg" viewBox="0 0 2500 2500"><defs><style>.cls-1{fill:#fff;}.cls-2{fill:#2c2f3b;}.cls-3{fill:#a7deef;}</style></defs><circle class="cls-1" cx="1250" cy="1250" r="1250"/><circle class="cls-2" cx="1250" cy="1250" r="1000"/><path class="cls-3" d="M1035.17,810.08c-203.16-37-363.8,1.72-427.83,112.62-47.77,82.75-34.11,192.46,33.13,309.73a20.84,20.84,0,1,0,36.59-20l-.45-.78c-60.56-105.64-72.35-200.32-33.18-268.17,53.19-92.12,196.47-126.66,384.27-92.46a20.83,20.83,0,0,0,7.47-41ZM746.12,1375c82.15,90.27,188.87,175,310.59,245.22,294.71,170.15,608.46,215.63,763.09,110.2a20.84,20.84,0,0,0-22.88-34.83l-.6.41c-138.39,94.36-436.42,51.15-718.77-111.86C959.47,1516,856.12,1434,776.94,1346.93A20.84,20.84,0,1,0,746,1374.85Z"/><path class="cls-3" d="M1770.47,1349.63c133-157.15,179.48-315.22,115.58-425.87-47-81.43-146.39-124.42-278.47-126.14a20.83,20.83,0,0,0-.54,41.66c118.79,1.55,204.41,38.59,242.94,105.31,53.06,91.92,11.64,232.87-111.32,378.12a20.84,20.84,0,0,0,31.51,27.28ZM1428.59,817c-120.29,25.77-248.32,76.16-371.27,147.14-304.23,175.65-502.7,434.66-475.13,622.47a20.84,20.84,0,0,0,41.3-5.56c0-.17,0-.33-.08-.5-24.47-166.75,163.65-412.26,454.75-580.32,119.27-68.87,243.24-117.66,359.15-142.49a20.84,20.84,0,0,0-8.06-40.89l-.66.15Z"/><path class="cls-3" d="M935.7,1716.82c69.57,194.22,183.35,313.81,311.31,313.81,93.32,0,179.65-63.62,247-175.61a20.84,20.84,0,1,0-35.4-22c-.1.17-.21.34-.31.52C1397.77,1934.2,1323.45,1989,1247,1989c-106.29,0-207.78-106.65-272.07-286.17A20.84,20.84,0,0,0,935.42,1716c.09.27.19.53.29.8Zm635.33-38c36-115.06,55.35-247.8,55.35-386.12,0-345.15-120.8-642.68-292.86-719.08a20.84,20.84,0,0,0-16.91,38.08c153.46,68.15,268.1,350.52,268.1,681,0,134.2-18.73,262.74-53.44,373.67a20.84,20.84,0,0,0,39.59,13l.18-.57Zm392.38-20.41a99.72,99.72,0,1,0-99.71,99.71A99.71,99.71,0,0,0,1963.41,1658.42Zm-41.67,0a58,58,0,1,1-58-58.05A58,58,0,0,1,1921.74,1658.42ZM628.88,1758.13a99.71,99.71,0,1,0-99.71-99.71A99.71,99.71,0,0,0,628.88,1758.13Zm0-41.66a58,58,0,1,1,58-58A58,58,0,0,1,628.88,1716.47Z"/><path class="cls-3" d="M1247,675.34a99.71,99.71,0,1,0-99.71-99.71A99.71,99.71,0,0,0,1247,675.34Zm0-41.66a58,58,0,1,1,58-58A58.05,58.05,0,0,1,1247,633.68Zm15.22,729.55a72.14,72.14,0,1,1,55.29-85.75A72.15,72.15,0,0,1,1262.23,1363.23Z"/></svg>