<svg id="Layer_1" data-name="Layer 1" xmlns="http://www.w3.org/2000/svg" viewBox="0 0 2500 2500"><defs><style>.cls-1{fill:#fff;}.cls-2{fill:#010101;}.cls-3{fill:#e44f26;}.cls-4{fill:#f1672a;}.cls-5{fill:#ebebeb;}</style></defs><circle class="cls-1" cx="1250" cy="1250" r="1250"/><path class="cls-2" d="M671.88,250h89.85v89.06h82.81V250h89.84V519.53H844.54V429.69h-82v89.84H671.88m381.25-179.69H973.84V250h248.82v89.84H1143V519.53h-89.85m209-269.53h94.14l57.81,94.92L1471.88,250H1566V519.53h-89.84V385.94l-62.89,96.87-62.89-96.87V519.53h-88.28M1610.55,250h89.85V430.47h127.34v89.06H1610.55"/><path class="cls-3" d="M670.31,2089.84,541.41,643H1958.59l-128.9,1446.09L1248.83,2250"/><path class="cls-4" d="M1250,2127V761.72h579.3L1718.75,1996.09"/><path class="cls-5" d="M804.69,938.67H1250V1116H999.22l16.41,181.64H1250v176.95H853.12m7.82,89.06h178.12l12.5,141.8L1250,1758.59v185.16L885.94,1842.19"/><path class="cls-1" d="M1693.75,938.67H1249.22V1116h428.12m-16,181.64H1249.22V1475H1468l-20.7,230.47-198,53.12V1943l363.28-100.78"/></svg>