<svg id="Layer_1" data-name="Layer 1" xmlns="http://www.w3.org/2000/svg" viewBox="0 0 2500 2500"><defs><style>.cls-1{fill:#fff;}.cls-2{fill:#f6df19;}.cls-3{fill:#010101;}</style></defs><circle class="cls-1" cx="1250" cy="1250" r="1250"/><rect class="cls-2" x="500" y="500" width="1500" height="1500"/><path class="cls-3" d="M1507.62,1671.88c30.21,49.33,69.52,85.6,139.05,85.6,58.4,0,95.71-29.19,95.71-69.53,0-48.33-38.33-65.45-102.62-93.57l-35.24-15.12c-101.71-43.33-169.28-97.62-169.28-212.38,0-105.71,80.55-186.19,206.43-186.19,89.62,0,154,31.19,200.47,112.86L1732.38,1364c-24.17-43.33-50.24-60.4-90.71-60.4-41.29,0-67.46,26.19-67.46,60.4,0,42.29,26.19,59.41,86.67,85.6l35.24,15.09c119.76,51.36,187.38,103.72,187.38,221.43,0,126.91-99.69,196.43-233.57,196.43-130.91,0-215.48-62.38-256.86-144.14Zm-497.93,12.22c22.14,39.28,42.29,72.5,90.71,72.5,46.31,0,75.53-18.12,75.53-88.58V1188.74h141v481.19c0,146-85.57,212.38-210.48,212.38-112.85,0-178.21-58.41-211.45-128.75Z"/></svg>