<svg id="Layer_1" data-name="Layer 1" xmlns="http://www.w3.org/2000/svg" xmlns:xlink="http://www.w3.org/1999/xlink" viewBox="0 0 2500 2500"><defs><style>.cls-1{fill:none;}.cls-2{fill:#fff;}.cls-3,.cls-5{fill:#689f63;}.cls-4{fill:#333;}.cls-4,.cls-5{fill-rule:evenodd;}.cls-6{clip-path:url(#clip-path);}.cls-7{fill:url(#linear-gradient);}.cls-8{clip-path:url(#clip-path-2);}.cls-9{fill:url(#linear-gradient-2);}.cls-10{clip-path:url(#clip-path-3);}.cls-11{fill:url(#linear-gradient-3);}</style><clipPath id="clip-path"><path class="cls-1" d="M976.65,920.52,786.18,1030.46a23,23,0,0,0-11.52,19.92v220a23,23,0,0,0,11.52,19.92l190.48,110a23.08,23.08,0,0,0,23,0l190.45-110a23,23,0,0,0,11.49-19.92v-220a23,23,0,0,0-11.53-19.92L999.66,920.52a23.19,23.19,0,0,0-23.06,0"/></clipPath><linearGradient id="linear-gradient" x1="3.63" y1="2510.83" x2="9.06" y2="2510.83" gradientTransform="matrix(-50.75, 103.54, 103.54, 50.75, -258651.2, -126928.63)" gradientUnits="userSpaceOnUse"><stop offset="0.3" stop-color="#3e863d"/><stop offset="0.5" stop-color="#55934f"/><stop offset="0.8" stop-color="#5aad45"/></linearGradient><clipPath id="clip-path-2"><path class="cls-1" d="M779.38,1284.38a23,23,0,0,0,6.79,5.95l163.39,94.38,27.22,15.64a23.07,23.07,0,0,0,13.26,3,23.34,23.34,0,0,0,4.52-.83l200.89-367.83a22.23,22.23,0,0,0-5.35-4.25l-124.72-72-65.93-37.93a24.14,24.14,0,0,0-6-2.39Z"/></clipPath><linearGradient id="linear-gradient-2" x1="-0.58" y1="2493.86" x2="2.94" y2="2493.86" gradientTransform="matrix(142.41, -105.22, -105.22, -142.41, 263228.28, 356428.87)" gradientUnits="userSpaceOnUse"><stop offset="0.57" stop-color="#3e863d"/><stop offset="0.72" stop-color="#619857"/><stop offset="1" stop-color="#76ac64"/></linearGradient><clipPath id="clip-path-3"><path class="cls-1" d="M985.85,917.57a23.27,23.27,0,0,0-9.2,2.95L786.72,1030.14l204.81,373a23,23,0,0,0,8.18-2.82l190.48-110a23.11,23.11,0,0,0,11.12-15.71L992.52,918a23.28,23.28,0,0,0-4.65-.46c-.64,0-1.27,0-1.9.09"/></clipPath><linearGradient id="linear-gradient-3" x1="5.87" y1="2493.26" x2="9.06" y2="2493.26" gradientTransform="matrix(129.89, 0, 0, -129.89, 23.85, 325007.83)" gradientUnits="userSpaceOnUse"><stop offset="0.16" stop-color="#6bbf47"/><stop offset="0.38" stop-color="#79b461"/><stop offset="0.47" stop-color="#75ac64"/><stop offset="0.7" stop-color="#659e5a"/><stop offset="0.9" stop-color="#3e863d"/></linearGradient></defs><circle class="cls-2" cx="1250" cy="1250" r="1250"/><path class="cls-3" d="M1238.53,1862.45a38,38,0,0,1-19-5.06l-60.3-35.7c-9-5-4.61-6.82-1.64-7.85,12-4.2,14.45-5.15,27.27-12.43a4.54,4.54,0,0,1,4.48.32l46.33,27.49a6.12,6.12,0,0,0,5.59,0L1421.93,1725a5.68,5.68,0,0,0,2.76-4.88V1511.65a5.79,5.79,0,0,0-2.79-5l-180.55-104.17a5.58,5.58,0,0,0-5.56,0l-180.51,104.17a5.76,5.76,0,0,0-2.86,4.93V1720a5.56,5.56,0,0,0,2.8,4.84l49.46,28.57c26.86,13.43,43.27-2.39,43.27-18.31V1529.42a5.15,5.15,0,0,1,5.24-5.2h22.88a5.17,5.17,0,0,1,5.2,5.2v205.8c0,35.81-19.53,56.38-53.48,56.38-10.45,0-18.68,0-41.64-11.3L1038.76,1753a38.21,38.21,0,0,1-18.94-33V1511.61a38,38,0,0,1,18.94-32.91l180.8-104.31a39.64,39.64,0,0,1,38,0l180.57,104.35a38.1,38.1,0,0,1,19,32.91v208.43a38.21,38.21,0,0,1-19,32.91l-180.57,104.3a37.92,37.92,0,0,1-19,5.07"/><path class="cls-3" d="M1294.32,1718.83c-79,0-95.6-36.27-95.6-66.7a5.2,5.2,0,0,1,5.23-5.2h23.33a5.23,5.23,0,0,1,5.15,4.42c3.53,23.77,14,35.76,61.8,35.76,38.07,0,54.26-8.6,54.26-28.78,0-11.62-4.61-20.26-63.75-26-49.46-4.89-80-15.78-80-55.34,0-36.44,30.74-58.14,82.24-58.14,57.82,0,86.48,20.07,90.1,63.2a5.25,5.25,0,0,1-1.4,4,5.4,5.4,0,0,1-3.84,1.68h-23.47a5.18,5.18,0,0,1-5.06-4.07c-5.65-25-19.31-33-56.42-33-41.55,0-46.39,14.47-46.39,25.32,0,13.16,5.7,17,61.76,24.42,55.52,7.37,81.87,17.76,81.87,56.78,0,39.34-32.82,61.9-90.06,61.9m220-221h6.06c5,0,5.92-3.48,5.92-5.52,0-5.33-3.66-5.33-5.7-5.33h-6.23Zm-7.37-17.09h13.43c4.61,0,13.65,0,13.65,10.31,0,7.19-4.61,8.68-7.37,9.58,5.38.36,5.74,3.89,6.47,8.86.36,3.12,1,8.5,2,10.31h-8.27c-.23-1.81-1.49-11.75-1.49-12.3-.55-2.21-1.31-3.3-4.07-3.3h-6.83V1520h-7.55Zm-16.14,19.44a29.19,29.19,0,1,0,29.07-29.12,29.23,29.23,0,0,0-29.07,29.12m64,.14a34.81,34.81,0,1,1-34.81-34.81,34.91,34.91,0,0,1,34.81,34.81"/><path class="cls-4" d="M679.22,1046.93a23.12,23.12,0,0,0-11.57-20.09L476.15,916.66a22.37,22.37,0,0,0-10.52-3h-2a22.81,22.81,0,0,0-10.58,3L261.58,1026.84A23.31,23.31,0,0,0,250,1047l.42,296.76a11.39,11.39,0,0,0,5.74,10,11,11,0,0,0,11.49,0l113.84-65.19a23.35,23.35,0,0,0,11.57-20.07V1129.81a23.06,23.06,0,0,1,11.55-20l48.47-27.92a23,23,0,0,1,11.57-3.11,22.6,22.6,0,0,1,11.5,3.11l48.45,27.9a23.08,23.08,0,0,1,11.57,20v138.63a23.44,23.44,0,0,0,11.6,20.08l113.77,65.15a11.32,11.32,0,0,0,11.57,0,11.62,11.62,0,0,0,5.73-10Zm903.62,154.52a5.76,5.76,0,0,1-2.89,5l-65.78,37.91a5.77,5.77,0,0,1-5.77,0l-65.78-37.91a5.74,5.74,0,0,1-2.9-5v-75.94a5.83,5.83,0,0,1,2.85-5l65.74-38a5.84,5.84,0,0,1,5.83,0l65.78,38a5.77,5.77,0,0,1,2.9,5ZM1600.61,639a11.57,11.57,0,0,0-17.21,10.12V943a8.09,8.09,0,0,1-12.14,7l-48-27.63a23.12,23.12,0,0,0-23.12,0l-191.55,110.55a23.1,23.1,0,0,0-11.58,20v221.17a23.16,23.16,0,0,0,11.58,20l191.55,110.63a23.25,23.25,0,0,0,23.14,0l191.56-110.68a23.18,23.18,0,0,0,11.57-20V722.83a23.17,23.17,0,0,0-11.89-20.21Zm637.89,484.5a23.12,23.12,0,0,0,11.5-20v-53.6a23.15,23.15,0,0,0-11.52-20L2048.15,919.42a23.12,23.12,0,0,0-23.2,0L1833.44,1030a23.08,23.08,0,0,0-11.57,20v221.08a23.21,23.21,0,0,0,11.66,20.12l190.29,108.46a23.07,23.07,0,0,0,22.7.13l115.11-64a11.55,11.55,0,0,0,.09-20.12L1969,1205.11a11.49,11.49,0,0,1-5.84-10v-69.35a11.48,11.48,0,0,1,5.79-10l60-34.59a11.43,11.43,0,0,1,11.53,0l60,34.59a11.53,11.53,0,0,1,5.78,10v54.53a11.54,11.54,0,0,0,17.36,10Z"/><path class="cls-5" d="M2033.75,1113.17a4.39,4.39,0,0,1,4.43,0l36.75,21.2a4.44,4.44,0,0,1,2.22,3.85v42.45a4.42,4.42,0,0,1-2.22,3.84l-36.75,21.21a4.39,4.39,0,0,1-4.43,0L1997,1184.51a4.42,4.42,0,0,1-2.26-3.84v-42.45a4.4,4.4,0,0,1,2.22-3.85Z"/><g class="cls-6"><path class="cls-7" d="M1394.1,1011.79,857.37,748.71l-275.2,561.4,536.71,263.1Z"/></g><g class="cls-8"><path class="cls-9" d="M547.33,1089.6l379,512.94,501.21-370.31-379-512.92Z"/></g><g class="cls-10"><path class="cls-11" d="M786.72,917.49v485.7h414.51V917.49Z"/></g></svg>