<svg id="Layer_1" data-name="Layer 1" xmlns="http://www.w3.org/2000/svg" xmlns:xlink="http://www.w3.org/1999/xlink" viewBox="0 0 2500 2500"><defs><style>.cls-1{fill:#fff;}.cls-2{fill:url(#linear-gradient);}.cls-3{fill:url(#linear-gradient-2);}</style><linearGradient id="linear-gradient" x1="482.45" y1="2000.74" x2="1471.39" y2="1008.49" gradientTransform="matrix(1, 0, 0, -1, -44.94, 2434.53)" gradientUnits="userSpaceOnUse"><stop offset="0" stop-color="#3a7fb9"/><stop offset="1" stop-color="#376a95"/></linearGradient><linearGradient id="linear-gradient-2" x1="1090.59" y1="1369.07" x2="2152.72" y2="351.5" gradientTransform="matrix(1, 0, 0, -1, -44.94, 2434.53)" gradientUnits="userSpaceOnUse"><stop offset="0" stop-color="#fee053"/><stop offset="1" stop-color="#ffc433"/></linearGradient></defs><circle class="cls-1" cx="1250" cy="1250" r="1250"/><g id="layer1"><g id="g1894"><path id="path8615" class="cls-2" d="M1242.79,255.21c-507.72,0-476,220.18-476,220.18l.57,228.1h484.51V772h-677S250,735.13,250,1247.43s283.57,494.13,283.57,494.13H702.81V1503.84s-9.12-283.58,279.05-283.58H1462.4s270,4.37,270-260.93V520.67S1773.39,255.21,1242.79,255.21ZM975.63,408.6a87.17,87.17,0,1,1-87.17,87.16A87.08,87.08,0,0,1,975.63,408.6Z"/><path id="path8620" class="cls-3" d="M1257.21,2244.79c507.72,0,476-220.18,476-220.18l-.57-228.1H1248.15V1728h677S2250,1764.87,2250,1252.57s-283.57-494.13-283.57-494.13H1797.19V996.16s9.12,283.58-279,283.58H1037.6s-270-4.37-270,260.93v438.66S726.61,2244.79,1257.21,2244.79Zm267.16-153.39a87.17,87.17,0,1,1,87.17-87.16A87.08,87.08,0,0,1,1524.37,2091.4Z"/></g></g></svg>