<svg id="Layer_1" data-name="Layer 1" xmlns="http://www.w3.org/2000/svg" viewBox="0 0 2500 2500"><defs><style>.cls-1{fill:#fff;}.cls-2{fill:#61dafb;}</style></defs><circle class="cls-1" cx="1250" cy="1250" r="1250"/><path class="cls-2" d="M2250,1250.2c0-132.49-165.92-258.05-420.3-335.91,58.7-259.28,32.61-465.55-82.35-531.6-26.5-15.49-57.48-22.82-91.32-22.82v90.9c18.76,0,33.84,3.67,46.48,10.6C1758,493.17,1782,614.25,1763.25,770c-4.49,38.32-11.82,78.67-20.79,119.85-79.9-19.57-167.14-34.65-258.87-44.44-55-75.41-112.11-143.9-169.59-203.83C1446.9,518,1571.65,450.37,1656.44,450.37V359.46h0c-112.11,0-258.87,79.9-407.26,218.51C1100.8,440.18,954,361.09,841.93,361.09V452c84.38,0,209.54,67.26,342.44,190A1925.78,1925.78,0,0,0,1016,845.39c-92.13,9.79-179.37,24.87-259.27,44.85-9.38-40.77-16.31-80.31-21.2-118.23-19.16-155.72,4.48-276.8,59.52-309,12.23-7.33,28.13-10.59,46.88-10.59V361.5h0c-34.25,0-65.23,7.33-92.13,22.83-114.56,66-140.24,271.91-81.13,530.37C415.1,993,250,1118.12,250,1250.2c0,132.49,165.92,258.06,420.3,335.92-58.7,259.27-32.61,465.55,82.35,531.59,26.5,15.49,57.48,22.83,91.72,22.83,112.11,0,258.87-79.9,407.26-218.51,148.39,137.79,295.15,216.88,407.26,216.88,34.24,0,65.22-7.34,92.13-22.83,114.55-66,140.24-271.91,81.12-530.37C2084.9,1507.85,2250,1382.29,2250,1250.2ZM1719.22,978.29c-15.08,52.59-33.83,106.81-55,161-16.72-32.61-34.25-65.23-53.41-97.84-18.75-32.61-38.73-64.41-58.7-95.39C1610,954.65,1665.82,965.25,1719.22,978.29Zm-186.71,434.16c-31.8,55-64.41,107.22-98.25,155.73-60.74,5.3-122.3,8.16-184.26,8.16-61.56,0-123.11-2.86-183.45-7.75-33.84-48.51-66.86-100.29-98.65-154.91q-46.49-80.12-84.8-162.25c25.28-54.63,53.81-109.26,84.39-162.66,31.8-55,64.41-107.22,98.25-155.73,60.74-5.3,122.29-8.15,184.26-8.15,61.56,0,123.11,2.85,183.45,7.74,33.83,48.52,66.86,100.29,98.65,154.92,31,53.4,59.11,107.62,84.8,162.25C1591.21,1304.42,1563.09,1359.05,1532.51,1412.45Zm131.68-53c22,54.62,40.76,109.25,56.25,162.25-53.4,13-109.66,24-168,32.61,20-31.39,40-63.59,58.7-96.62C1629.94,1425.09,1647.47,1392.07,1664.19,1359.46Zm-413.37,435A1680.54,1680.54,0,0,1,1137.48,1664c36.69,1.63,74.2,2.86,112.11,2.86,38.32,0,76.24-.82,113.33-2.86A1592.52,1592.52,0,0,1,1250.82,1794.44ZM947.51,1554.32c-57.89-8.56-113.74-19.16-167.14-32.2,15.08-52.59,33.84-106.81,55-161,16.71,32.61,34.24,65.22,53.4,97.84S927.54,1523.34,947.51,1554.32ZM1248.78,706a1684.28,1684.28,0,0,1,113.33,130.45c-36.69-1.63-74.2-2.85-112.11-2.85-38.32,0-76.23.82-113.33,2.85A1592.11,1592.11,0,0,1,1248.78,706ZM947.11,946.09c-20,31.39-40,63.59-58.71,96.61-18.75,32.62-36.28,65.23-53,97.84-22-54.62-40.77-109.25-56.26-162.25C832.55,965.65,888.81,954.65,947.11,946.09ZM578.17,1456.48C433.86,1394.92,340.5,1314.21,340.5,1250.2s93.36-145.12,237.67-206.27c35.06-15.09,73.38-28.54,112.92-41.18,23.24,79.9,53.81,163.07,91.73,248.27-37.51,84.79-67.68,167.55-90.5,247C652,1485.43,613.64,1471.57,578.17,1456.48ZM797.49,2039c-55.44-31.79-79.49-152.87-60.74-308.6,4.49-38.32,11.82-78.68,20.79-119.85,79.9,19.57,167.14,34.65,258.87,44.43,55,75.42,112.11,143.91,169.59,203.84C1053.1,1982.37,928.35,2050,843.56,2050,825.21,2049.63,809.72,2046,797.49,2039Zm967-310.64c19.16,155.73-4.48,276.81-59.52,309-12.23,7.34-28.13,10.6-46.88,10.6-84.38,0-209.54-67.26-342.44-190A1925.78,1925.78,0,0,0,1484,1654.61c92.13-9.79,179.37-24.87,259.27-44.85C1752.65,1650.94,1760,1690.48,1764.47,1728.39Zm157-271.91c-35.06,15.09-73.38,28.54-112.92,41.18-23.24-79.91-53.81-163.07-91.72-248.27,37.5-84.8,67.67-167.55,90.5-247.05,40.36,12.64,78.68,26.5,114.55,41.59,144.31,61.55,237.67,142.27,237.67,206.27C2159.09,1314.21,2065.74,1395.33,1921.42,1456.48Z"/><path class="cls-2" d="M841.52,361.09Z"/><circle class="cls-2" cx="1249.59" cy="1250.2" r="186.3"/><path class="cls-2" d="M1655.63,359.87Z"/></svg>