<svg id="Layer_1" data-name="Layer 1" xmlns="http://www.w3.org/2000/svg" xmlns:xlink="http://www.w3.org/1999/xlink" viewBox="0 0 2500 2500"><defs><style>.cls-1{fill:#fff;}.cls-2{fill:url(#radial-gradient);}.cls-3,.cls-4,.cls-5{stroke-miterlimit:10;}.cls-3,.cls-4{stroke-width:21.14px;}.cls-3{fill:url(#linear-gradient);stroke:url(#linear-gradient-2);}.cls-10,.cls-4{fill:none;}.cls-4{opacity:0.54;stroke:url(#linear-gradient-3);}.cls-4,.cls-6{isolation:isolate;}.cls-5{fill:#3465a4;stroke-width:1px;stroke:url(#linear-gradient-4);}.cls-6{opacity:0.49;fill:url(#linear-gradient-5);}.cls-7{fill:#204a87;}.cls-8{fill:#00546b;}.cls-9{fill:#f57900;}</style><radialGradient id="radial-gradient" cx="64.62" cy="2380.05" r="40.34" gradientTransform="matrix(22.39, 0, 0, -12.17, -194.42, 30698.15)" gradientUnits="userSpaceOnUse"><stop offset="0"/><stop offset="1" stop-opacity="0"/></radialGradient><linearGradient id="linear-gradient" x1="32.32" y1="2442.26" x2="101.79" y2="2442.26" gradientTransform="matrix(21.14, 0, 0, -21.14, -169.58, 52832.42)" gradientUnits="userSpaceOnUse"><stop offset="0" stop-color="#729fcf"/><stop offset="0.32" stop-color="#babdb6"/><stop offset="1" stop-color="#3465a4"/></linearGradient><linearGradient id="linear-gradient-2" x1="577.37" y1="1423.43" x2="2190.93" y2="1423.43" gradientTransform="matrix(0.9, 0, 0, -1.11, 0.62, 2775.28)" gradientUnits="userSpaceOnUse"><stop offset="0" stop-color="#729fcf"/><stop offset="1" stop-color="#204a87"/></linearGradient><linearGradient id="linear-gradient-3" x1="55.41" y1="2466.39" x2="93.88" y2="2387.68" gradientTransform="matrix(21.14, 0, 0, -21.14, -169.58, 52832.42)" gradientUnits="userSpaceOnUse"><stop offset="0" stop-color="#3977c3"/><stop offset="1" stop-color="#89aedc" stop-opacity="0"/></linearGradient><linearGradient id="linear-gradient-4" x1="65.4" y1="2464.39" x2="65.4" y2="2471.65" gradientTransform="matrix(21.93, 0, 0, -20.18, -189.3, 50467.38)" gradientUnits="userSpaceOnUse"><stop offset="0" stop-color="#fff"/><stop offset="1" stop-color="#729fcf"/></linearGradient><linearGradient id="linear-gradient-5" x1="50.96" y1="2455.59" x2="50.28" y2="2430.88" gradientTransform="matrix(21.14, 0, 0, -21.14, -172.6, 52888.29)" gradientUnits="userSpaceOnUse"><stop offset="0" stop-color="#fff"/><stop offset="1" stop-color="#fff" stop-opacity="0"/></linearGradient></defs><circle class="cls-1" cx="1250" cy="1250" r="1250"/><g id="layer1"><g id="g24902"><path id="path3366-8" class="cls-2" d="M2155,1731.77c0,271.12-404.21,490.92-902.89,490.93s-902.94-219.76-903-490.88v0c0-271.12,404.22-490.92,902.89-490.93s903,219.76,903,490.89Z"/><path id="path3068-5" class="cls-3" d="M1241.87,309.9c-391,0-708.9,139.42-708.9,310.92V1771.25c0,171.5,317.91,310.92,708.9,310.92s721.57-139.42,721.57-310.92V620.82c0-171.5-330.58-310.92-721.57-310.92Z"/><path id="path4174-0" class="cls-4" d="M1242.3,348.67c-364.54,0-660.95,130-660.95,289.89V1739.3c0,159.9,296.41,289.89,660.95,289.89s672.76-130,672.76-289.89V638.56C1915.06,478.66,1606.84,348.67,1242.3,348.67Z"/><path id="path3364-7" class="cls-5" d="M1908.45,616.6c0,144.26-297,261.2-663.47,261.2S581.52,760.86,581.52,616.6h0c0-144.25,297-261.19,663.46-261.19S1908.45,472.35,1908.45,616.6Z"/><path id="path6922-9" class="cls-6" d="M729.74,847.58l17.76,835.05,227.42,64-7.1-831.5s103,0,270.06-10.66C978.4,892.84,681.53,781.32,580.49,709,651,813.08,729.74,847.58,729.74,847.58Z"/><path id="path12-0" class="cls-7" d="M671.26,1628.2h37.86v-150L768.24,1609c6.7,15.73,16.31,21.55,35,21.55s27.66-5.82,34.65-21.55l58.83-130.76v150h38.15v-150c0-14.56-5.82-21.55-18.06-25.34-28.83-8.73-48-1.16-56.78,18.35l-58,129.3-55.91-129.3c-8.45-19.51-28-27.08-57.09-18.35-11.94,3.79-17.76,10.78-17.76,25.34v150Z"/><path id="path14-5" class="cls-7" d="M966.27,1506.18h38.15v82.42c-.29,4.65,1.46,15.14,22.14,15.43,10.77.29,82.12,0,82.71,0V1505.6h38.15v134.84c0,33.19-41.07,40.48-60.29,40.77h-120v-25.34h120.27c24.47-2.62,21.56-14.85,21.56-18.93V1627h-80.67c-37.57-.29-61.74-16.89-62-35.82,0-1.75.88-84.46,0-85Z"/><path id="path16-3" class="cls-7" d="M1784.63,1410.65c-23.3-.58-41.36,1.75-56.5,8.16-4.37,1.75-11.36,1.75-11.94,7.28,2.33,2.33,2.62,6.12,4.66,9.32,3.49,5.82,9.61,13.69,15.14,17.77,6.12,4.65,12.23,9.31,18.64,13.39,11.36,7,24.17,11.07,35.24,18.06,6.41,4.07,12.81,9.32,19.22,13.69,3.2,2.32,5.24,6.11,9.32,7.57V1505c-2-2.62-2.62-6.4-4.66-9.32-2.91-2.91-5.83-5.53-8.74-8.44a138.07,138.07,0,0,0-30.29-29.42c-9.31-6.4-29.7-15.14-33.49-25.92l-.58-.58c6.41-.58,14-2.91,20.1-4.66,9.9-2.62,18.93-2,29.12-4.66,4.66-1.16,9.32-2.62,14-4.07v-2.62c-5.24-5.25-9-12.24-14.56-17.19a390.26,390.26,0,0,0-48.06-35.82c-9-5.82-20.68-9.61-30.29-14.56-3.49-1.75-9.32-2.62-11.35-5.53-5.25-6.41-8.16-14.85-11.94-22.43-8.45-16-16.6-33.78-23.89-50.67-5.23-11.36-8.44-22.72-14.85-33.2-30-49.51-62.61-79.51-112.7-108.92-10.78-6.12-23.59-8.74-37.28-11.94-7.28-.29-14.56-.87-21.84-1.17-4.66-2-9.32-7.57-13.4-10.19-16.6-10.48-59.41-33.2-71.64-3.2-7.86,18.93,11.65,37.57,18.35,47.18,4.95,6.7,11.36,14.27,14.85,21.84,2,5,2.62,10.19,4.66,15.43,4.66,12.82,9,27.09,15.14,39a141.28,141.28,0,0,0,10.78,18c2.33,3.21,6.41,4.66,7.28,9.91-4.08,5.82-4.37,14.56-6.7,21.84-10.48,32.91-6.4,73.68,8.45,97.85,4.66,7.28,15.72,23.3,30.58,17.18,13.1-5.24,10.19-21.84,14-36.4.88-3.5.3-5.82,2-8.15,0,.29,0,.58,0,.58,4.08,8.15,8.16,16,11.94,24.17,9,14.27,24.76,29.12,37.86,39,7,5.24,12.53,14.26,21.26,17.47v-.88h-.58c-1.75-2.62-4.37-3.78-6.7-5.82a141.15,141.15,0,0,1-15.14-17.47,374.67,374.67,0,0,1-32.62-53c-4.66-9-8.74-18.93-12.52-27.95-1.75-3.5-1.75-8.74-4.66-10.49-4.37,6.41-10.78,11.94-14,19.81-5.53,12.52-6.12,28-8.15,44-1.17.29-.59,0-1.17.58-9.32-2.33-12.52-11.94-16-20.09-8.73-20.68-10.19-53.88-2.62-77.76,2-6.12,10.78-25.34,7.28-31.16-1.74-5.53-7.57-8.74-10.77-13.11a117.09,117.09,0,0,1-10.49-18.63c-7-16.31-10.48-34.37-18-50.68-3.5-7.57-9.61-15.43-14.56-22.42-5.54-7.87-11.65-13.4-16-22.72-1.46-3.2-3.5-8.44-1.17-11.94.59-2.33,1.75-3.2,4.08-3.78,3.79-3.21,14.56.87,18.35,2.62,10.77,4.36,19.8,8.44,28.83,14.56,4.08,2.91,8.44,8.44,13.69,9.9h6.11c9.32,2,19.81.58,28.54,3.2,15.44,5,29.42,12.23,41.94,20.1a258.31,258.31,0,0,1,90.86,99.6c3.5,6.69,5,12.81,8.16,19.8,6.11,14.27,13.69,28.83,19.8,42.81,6.12,13.69,11.94,27.67,20.68,39,4.37,6.11,21.84,9.31,29.7,12.52,5.83,2.62,14.86,5,20.1,8.15,9.9,6.12,19.8,13.11,29.12,19.81,4.66,3.49,19.22,10.77,20.1,16.59Z"/><path id="path18-4" class="cls-8" d="M1487.57,1157.58a46.31,46.31,0,0,0-11.94,1.45v.59h.58c2.34,4.66,6.41,7.86,9.32,11.94,2.33,4.66,4.37,9.32,6.7,14l.58-.59c4.08-2.91,6.12-7.57,6.12-14.56-1.75-2-2-4.07-3.5-6.11-1.74-2.92-5.53-4.37-7.86-6.7Z"/><path id="path20-1" class="cls-9" d="M1176.54,1628.2H1286c12.82,0,25-2.62,35-7.28,16.6-7.57,24.46-17.76,24.46-31.16v-28c0-10.77-9-21-27.08-28a95.38,95.38,0,0,0-32.33-5.53h-46c-15.44,0-22.72-4.66-24.76-14.85a14.28,14.28,0,0,1-.29-3.5v-17.18a13.08,13.08,0,0,1,.29-3.2c2-7.86,6.12-9.9,19.52-11.36h112.12v-25.34H1240.32c-15.44,0-23.59.88-30.87,3.21-22.43,7-32.33,18.05-32.33,37.57v22.13c0,17.18,19.22,31.74,51.84,35.24,3.5.29,7.28.29,11.07.29h39.31a18,18,0,0,1,4.08.29c11.94,1.16,17.18,3.2,20.68,7.57a8.84,8.84,0,0,1,2.91,7v22.13c0,2.62-1.75,6.12-5.24,9s-9,5-16.31,5.24c-1.46,0-2.33.29-3.79.29H1176.54v25.34Z"/><path id="path22-0" class="cls-9" d="M1582.51,1584.23c0,25.91,19.52,40.48,58.54,43.39,3.78.29,7.28.58,11.06.58h99v-25.34h-99.9c-22.13,0-30.58-5.53-30.58-18.92V1452.88h-38.15v131.35Z"/><path id="path24-4" class="cls-9" d="M1369.62,1585.39v-90.28c0-23,16.31-37,48.06-41.35,3.49-.3,7-.58,10.19-.58h72.22c3.79,0,7,.3,10.78.59,31.74,4.36,47.76,18.34,47.76,41.35v90.28c0,18.64-6.7,28.54-22.42,35.24l37.27,33.78h-44L1499.22,1627l-30.58,1.74h-40.77a88.89,88.89,0,0,1-22.13-2.91c-24.18-6.7-36.12-19.51-36.12-40.48Zm41.07-2a23.08,23.08,0,0,0,.87,3.79c2,10.48,11.94,16.31,27.08,16.31H1473l-31.45-28.54h44l27.67,25q7.86-4.37,9.61-12.23a16.62,16.62,0,0,0,.29-3.78v-86.5a14.2,14.2,0,0,0-.29-3.49c-2-9.9-11.94-15.44-26.79-15.44h-57.38c-16.89,0-28,7.28-28,18.93v85.91Z"/><path id="path26-8" class="cls-9" d="M1768.61,1628.49h5.53v-21.26h7.28v-4.37H1761v4.37h7.58v21.26Zm42.23,0h5.24v-25.63h-7.86l-6.41,17.48-7-17.48h-7.57v25.63h5V1609h.29l7.28,19.51h3.79l7.28-19.51v19.51Z"/><rect id="rect2300" class="cls-10" x="250" y="250" width="2000" height="2000"/></g></g></svg>